<?xml version="1.0" encoding="UTF-8"?>
<svg width="124px" height="33px" viewBox="0 0 124 33" version="1.1" xmlns="http://www.w3.org/2000/svg" xmlns:xlink="http://www.w3.org/1999/xlink">
    <!-- Generator: Sketch 51.1 (57501) - http://www.bohemiancoding.com/sketch -->
    <title>Empire_Logo Copy 4</title>
    <desc>Created with Sketch.</desc>
    <defs></defs>
    <g id="Navigation" stroke="none" stroke-width="1" fill="none" fill-rule="evenodd">
        <g id="1440_scrolling-Article-Nav" transform="translate(-80.000000, -15.000000)" fill="#FF0000">
            <g id="Group-5">
                <g id="Empire_Logo-Copy-4" transform="translate(80.000000, 15.000000)">
                    <path d="M48.6267074,0.863851852 C49.3611009,11.3257778 49.9943731,21.8859259 50.6592457,32.4145926 C48.4522732,32.4372593 46.2453007,32.4586667 44.0370642,32.4800741 C43.789317,28.8735556 43.5896024,25.2179259 43.3481753,21.6038519 C40.7506218,25.2632593 38.2263812,29.3017037 35.6111315,33.0681481 C32.8454638,29.2576296 30.2883588,25.2418519 27.5467074,21.4074074 C27.357105,25.1045926 26.9235474,32.4473333 26.9235474,32.4473333 L20.2685015,32.4788148 C20.2685015,32.4788148 21.5868705,11.4756296 22.2997757,1.0262963 C22.3844648,0.931851852 22.4969623,1.25548148 22.4969623,1.25548148 C22.4969623,1.25548148 31.3210601,15.2546667 35.7425892,22.1591852 C40.0617329,15.0846667 44.3518043,7.98244444 48.6267074,0.863851852 Z" id="Shape"></path>
                    <path d="M52.4971254,1.25548148 C59.4694393,1.67859259 65.8628338,2.68348148 69.6081142,6.41592593 C70.8822426,7.68525926 71.921264,9.08177778 72.462263,10.9555556 C73.0626707,13.0371111 73.0740469,15.6185926 72.462263,17.4545926 C71.8643833,19.2402222 70.6597757,20.6644444 69.3464628,21.7335556 C66.5972273,23.9725185 62.927788,25.2040741 59.1193068,26.3059259 C59.1193068,28.3522222 59.1193068,30.3997778 59.1193068,32.4460741 C56.8996942,32.4460741 54.6813456,32.4460741 52.4617329,32.4460741 C52.4617329,22.0823704 52.4617329,11.7174074 52.4617329,1.3537037 C52.4592049,1.30711111 52.4566769,1.26051852 52.4971254,1.25548148 Z M59.052314,7.29866667 C59.052314,11.8911852 59.052314,16.4874815 59.0522687,21.08 C61.0823242,20.5737778 62.9859327,19.9668148 64.6253619,18.9908889 C66.2028542,18.0502222 67.4896228,16.6524444 67.4769827,14.1893333 C67.4668705,11.8131111 66.2786952,10.2805926 64.8212844,9.19259259 C63.319633,8.06933333 61.3932722,7.46614815 59.1180428,7.20044444 C59.0763303,7.2142963 59.0510499,7.242 59.052314,7.29866667 Z" id="Shape"></path>
                    <path d="M74.6249949,1.25548148 C76.8218552,1.25548148 81.2143119,1.25548148 81.2143119,1.25548148 C81.2143119,1.25548148 81.2143119,22.0937037 81.2143119,32.5115556 C79.0073394,32.5115556 76.800367,32.5115556 74.5933945,32.5115556 C74.5933945,22.1264444 74.5933945,1.3537037 74.5933945,1.3537037 C74.5933945,1.3537037 74.5870744,1.26051852 74.6249949,1.25548148 Z" id="Shape"></path>
                    <path d="M83.6083588,1.25548148 C89.5340673,1.75918519 95.1071152,2.48955556 98.9838532,5.07607407 C101.578879,6.80881481 103.573496,8.942 104.032334,12.784 C104.78316,19.0727407 100.737044,22.4248889 96.3938838,24.0858519 C98.6400408,25.8626667 101.107401,27.738963 103.474903,29.5397037 C103.804811,29.789037 104.186544,29.9892593 104.425443,30.3242222 C102.538267,31.0659259 100.706707,31.8655556 98.8536595,32.6425185 C95.9679103,30.5748148 93.1845464,28.4063704 90.2962691,26.3386667 C90.2962691,28.3862222 90.2962691,30.4325185 90.2962691,32.4788148 C88.0665443,32.4788148 85.8380836,32.4788148 83.6083588,32.4788148 C83.6007747,22.1 83.6311111,11.6834074 83.5767584,1.3537037 C83.5717023,1.30711111 83.5691743,1.26051852 83.6083588,1.25548148 Z M92.8735984,20.2438519 C96.0184709,19.2074815 98.8852599,17.8008889 98.6236086,13.6012593 C98.4921509,11.497037 97.2142304,9.96703704 95.8364526,9.02888889 C94.315841,7.99377778 92.3920082,7.53666667 90.2646687,7.20044444 C90.2254842,7.20548148 90.2280122,7.25207407 90.2305403,7.29866667 C90.2305403,11.8911852 90.2305403,16.4874815 90.2305403,21.08 C91.0913354,20.7966667 91.993843,20.5347407 92.8735984,20.2438519 Z" id="Shape"></path>
                    <path d="M1.05671764,1.32096296 L18.2018349,1.32096296 L18.8249949,6.54688889 L7.58030581,6.54688889 L7.54744139,12.3596296 L16.0037105,12.3596296 L16.0037105,17.5200741 L7.61190622,17.5200741 L7.58030581,27.3523704 L18.8565953,27.3838519 C18.8565953,27.3838519 18.2966361,30.7888889 18.0046483,32.4788148 C12.3330071,32.4788148 0.989724771,32.4788148 0.989724771,32.4788148 L1.02385321,1.41918519 L1.05671764,1.32096296 Z" id="Shape"></path>
                    <polygon id="Shape" points="123.997472 27.3838519 123.997472 27.4493333 123.113925 32.4788148 106.097737 32.4788148 106.163466 1.32096296 123.308583 1.32096296 123.931743 6.54688889 112.688318 6.54688889 112.688318 12.2626667 121.144587 12.2626667 121.144587 17.4231111 112.752783 17.4231111 112.719918 27.3838519"></polygon>
                </g>
            </g>
        </g>
    </g>
</svg>